<?xml version="1.0" encoding="UTF-8" standalone="no"?>
<svg width="66" height="21" viewBox="0 0 66 21" fill="none" xmlns="http://www.w3.org/2000/svg">
  <path d="M3.309 14.35C18.0965 9.62302 33.8412 8.72297 49.071 11.734C53.516 12.6392 57.8931 13.8508 62.171 15.36C62.4875 15.4472 62.8182 15.4713 63.144 15.4308C63.4699 15.3903 63.7846 15.286 64.0701 15.1238C64.3556 14.9617 64.6065 14.7449 64.8082 14.4859C65.01 14.2268 65.1587 13.9305 65.246 13.614C65.3333 13.2974 65.3573 12.9668 65.3168 12.6409C65.2763 12.3151 65.172 12.0004 65.0098 11.7149C64.8477 11.4293 64.6309 11.1785 64.3719 10.9768C64.1128 10.775 63.8166 10.6262 63.5 10.539C43.6515 3.50424 22.0477 3.14957 1.979 9.52898C-1.079 10.494 0.227999 15.323 3.309 14.35Z" fill="#FFE863"/>
  <path d="M56.213 3.76097L58.799 8.62497L60.129 11.125L60.794 12.376C60.8718 12.5725 60.9725 12.7591 61.094 12.932C60.579 12.392 62.519 10.778 61.607 11.107C60.7978 11.4675 60.0143 11.8831 59.262 12.351L56.78 13.668L51.81 16.3C51.2412 16.6379 50.8281 17.1859 50.6597 17.8257C50.4914 18.4655 50.5812 19.1458 50.91 19.72C51.254 20.2821 51.8018 20.6896 52.4391 20.8573C53.0764 21.025 53.7539 20.94 54.33 20.62L60.122 17.548L62.88 16.085C64.028 15.476 65.224 14.973 65.762 13.7C65.958 13.0793 66.0075 12.4217 65.9067 11.7787C65.8059 11.1357 65.5575 10.5249 65.181 9.99397L63.634 7.07497L60.534 1.23797C60.1961 0.669207 59.6481 0.25608 59.0083 0.0877109C58.3685 -0.0806584 57.6881 0.00922519 57.114 0.337972C56.5519 0.681937 56.1444 1.22979 55.9767 1.8671C55.809 2.50441 55.894 3.18187 56.214 3.75797L56.213 3.76097Z" fill="#FFE863"/>
</svg>
