<?xml version="1.0" encoding="UTF-8" standalone="no"?>
<svg width="428" height="845" viewBox="0 0 428 845" fill="none" xmlns="http://www.w3.org/2000/svg">
    <path d="M373.5 3C374.328 3 375 2.32843 375 1.5C375 0.671573 374.328 0 373.5 0C372.672 0 372 0.671573 372 1.5C372 2.32843 372.672 3 373.5 3Z" fill="#FA9FC7"/>
      <path d="M337 22C338.105 22 339 21.1046 339 20C339 18.8954 338.105 18 337 18C335.895 18 335 18.8954 335 20C335 21.1046 335.895 22 337 22Z" fill="#75BDEC"/>
      <path d="M364 50C365.105 50 366 49.1046 366 48C366 46.8954 365.105 46 364 46C362.895 46 362 46.8954 362 48C362 49.1046 362.895 50 364 50Z" fill="#2A3F69"/>
      <path d="M398 34C399.105 34 400 33.1046 400 32C400 30.8954 399.105 30 398 30C396.895 30 396 30.8954 396 32C396 33.1046 396.895 34 398 34Z" fill="#FBFF95"/>
      <path d="M410 82C411.105 82 412 81.1046 412 80C412 78.8954 411.105 78 410 78C408.895 78 408 78.8954 408 80C408 81.1046 408.895 82 410 82Z" fill="#75BDEC"/>
      <path d="M343 91C344.105 91 345 90.1046 345 89C345 87.8954 344.105 87 343 87C341.895 87 341 87.8954 341 89C341 90.1046 341.895 91 343 91Z" fill="#FBFF95"/>
      <path d="M45.5 3C46.3284 3 47 2.32843 47 1.5C47 0.671573 46.3284 0 45.5 0C44.6716 0 44 0.671573 44 1.5C44 2.32843 44.6716 3 45.5 3Z" fill="#FA9FC7"/>
      <path d="M9 22C10.1046 22 11 21.1046 11 20C11 18.8954 10.1046 18 9 18C7.89543 18 7 18.8954 7 20C7 21.1046 7.89543 22 9 22Z" fill="#75BDEC"/>
      <path d="M36 50C37.1046 50 38 49.1046 38 48C38 46.8954 37.1046 46 36 46C34.8954 46 34 46.8954 34 48C34 49.1046 34.8954 50 36 50Z" fill="#2A3F69"/>
      <path d="M70 34C71.1046 34 72 33.1046 72 32C72 30.8954 71.1046 30 70 30C68.8954 30 68 30.8954 68 32C68 33.1046 68.8954 34 70 34Z" fill="#FBFF95"/>
      <path d="M82.5 83C83.8807 83 85 81.8807 85 80.5C85 79.1193 83.8807 78 82.5 78C81.1193 78 80 79.1193 80 80.5C80 81.8807 81.1193 83 82.5 83Z" fill="#75BDEC"/>
      <path d="M15.5 92C16.8807 92 18 90.8807 18 89.5C18 88.1193 16.8807 87 15.5 87C14.1193 87 13 88.1193 13 89.5C13 90.8807 14.1193 92 15.5 92Z" fill="#FBFF95"/>
      <path d="M85.5 726C86.3284 726 87 725.328 87 724.5C87 723.672 86.3284 723 85.5 723C84.6716 723 84 723.672 84 724.5C84 725.328 84.6716 726 85.5 726Z" fill="#FA9FC7"/>
      <path d="M38 751C39.1046 751 40 750.105 40 749C40 747.895 39.1046 747 38 747C36.8954 747 36 747.895 36 749C36 750.105 36.8954 751 38 751Z" fill="#75BDEC"/>
      <path d="M73 789C74.1046 789 75 788.105 75 787C75 785.895 74.1046 785 73 785C71.8954 785 71 785.895 71 787C71 788.105 71.8954 789 73 789Z" fill="#2A3F69"/>
      <path d="M117 768C118.105 768 119 767.105 119 766C119 764.895 118.105 764 117 764C115.895 764 115 764.895 115 766C115 767.105 115.895 768 117 768Z" fill="#FBFF95"/>
      <path d="M133 836C134.105 836 135 835.105 135 834C135 832.895 134.105 832 133 832C131.895 832 131 832.895 131 834C131 835.105 131.895 836 133 836Z" fill="#75BDEC"/>
      <path d="M44 845C45.1046 845 46 844.105 46 843C46 841.895 45.1046 841 44 841C42.8954 841 42 841.895 42 843C42 844.105 42.8954 845 44 845Z" fill="#FBFF95"/>
      <path d="M93 191C95.7614 191 98 188.761 98 186C98 183.239 95.7614 181 93 181C90.2386 181 88 183.239 88 186C88 188.761 90.2386 191 93 191Z" fill="#FA9FC7"/>
      <path d="M6.5 235C10.0899 235 13 232.09 13 228.5C13 224.91 10.0899 222 6.5 222C2.91015 222 0 224.91 0 228.5C0 232.09 2.91015 235 6.5 235Z" fill="#75BDEC"/>
      <path d="M70.5 298C74.0899 298 77 295.09 77 291.5C77 287.91 74.0899 285 70.5 285C66.9101 285 64 287.91 64 291.5C64 295.09 66.9101 298 70.5 298Z" fill="#2A3F69"/>
      <path d="M177.5 361C181.09 361 184 358.09 184 354.5C184 350.91 181.09 348 177.5 348C173.91 348 171 350.91 171 354.5C171 358.09 173.91 361 177.5 361Z" fill="#75BDEC"/>
      <path d="M26.5 389C30.0899 389 33 386.09 33 382.5C33 378.91 30.0899 376 26.5 376C22.9101 376 20 378.91 20 382.5C20 386.09 22.9101 389 26.5 389Z" fill="#FBFF95"/>
      <path d="M375 202C377.761 202 380 199.761 380 197C380 194.239 377.761 192 375 192C372.239 192 370 194.239 370 197C370 199.761 372.239 202 375 202Z" fill="#FA9FC7"/>
      <path d="M352.5 309C356.09 309 359 306.09 359 302.5C359 298.91 356.09 296 352.5 296C348.91 296 346 298.91 346 302.5C346 306.09 348.91 309 352.5 309Z" fill="#2A3F69"/>
      <path d="M432.5 272C436.09 272 439 269.09 439 265.5C439 261.91 436.09 259 432.5 259C428.91 259 426 261.91 426 265.5C426 269.09 428.91 272 432.5 272Z" fill="#FBFF95"/>
      <path d="M308.5 400C312.09 400 315 397.09 315 393.5C315 389.91 312.09 387 308.5 387C304.91 387 302 389.91 302 393.5C302 397.09 304.91 400 308.5 400Z" fill="#FBFF95"/>
    </svg>
