<?xml version="1.0" encoding="UTF-8" standalone="no"?>
<svg viewBox="0 0 400 296" fill="none" xmlns="http://www.w3.org/2000/svg">
  <path d="M361.843 294.529H277.143V291.929C277.143 289.672 278.04 287.508 279.636 285.913C281.231 284.317 283.395 283.421 285.652 283.421H353.332C354.45 283.421 355.556 283.641 356.589 284.068C357.621 284.496 358.56 285.122 359.35 285.912C360.14 286.703 360.767 287.641 361.195 288.673C361.623 289.706 361.843 290.812 361.843 291.93V294.529Z" fill="#E6E6E6"/>
  <path d="M317.51 283.939L320.086 282.902C293.136 216.008 295.732 131.615 318.514 59.221C321.22 50.8331 321.415 41.8371 319.076 33.3398C316.736 24.8424 311.963 17.2143 305.345 11.394C299.009 5.64185 291.13 1.86735 282.677 0.534829C274.224 -0.797689 265.565 0.3699 257.767 3.89396C241.85 10.974 239.656 23.307 239.656 35.58H242.43C242.43 22.48 245.23 12.509 258.893 6.43096C266.204 3.12874 274.321 2.0356 282.245 3.28603C290.169 4.53646 297.554 8.07591 303.493 13.469C309.709 18.9353 314.192 26.0997 316.39 34.0806C318.588 42.0615 318.405 50.5108 315.863 58.389C292.82 131.617 290.376 216.589 317.51 283.939Z" fill="#E6E6E6"/>
  <path d="M241.737 76.538C247.105 76.538 251.456 72.1866 251.456 66.819C251.456 61.4513 247.105 57.1 241.737 57.1C236.369 57.1 232.018 61.4513 232.018 66.819C232.018 72.1866 236.369 76.538 241.737 76.538Z" fill="#E6E6E6"/>
  <path d="M226.769 83.763V65.347H229.633V83.763C230.454 84.0953 231.135 84.7029 231.557 85.4817C231.98 86.2605 232.118 87.162 231.949 88.0317C231.779 88.9014 231.313 89.6851 230.629 90.2486C229.945 90.8121 229.087 91.1203 228.201 91.1203C227.315 91.1203 226.457 90.8121 225.773 90.2486C225.089 89.6851 224.623 88.9014 224.453 88.0317C224.284 87.162 224.423 86.2605 224.845 85.4817C225.267 84.7029 225.948 84.0953 226.769 83.763Z" fill="#E6E6E6"/>
  <path d="M212.926 51.199C212.931 46.9658 214.615 42.9074 217.608 39.9141C220.601 36.9208 224.66 35.237 228.893 35.232H255.274C259.509 35.232 263.57 36.9143 266.565 39.9087C269.559 42.9032 271.241 46.9646 271.241 51.1995C271.241 55.4343 269.559 59.4957 266.565 62.4902C263.57 65.4847 259.509 67.167 255.274 67.167H228.893C224.66 67.1619 220.601 65.478 217.608 62.4844C214.614 59.4909 212.931 55.4323 212.926 51.199Z" fill="#D83B3B"/>
  <path d="M175.757 150.08C178.406 116.192 191.948 100.047 183.277 89.922C174.971 80.222 151.577 82.222 136.547 91.533C96.018 116.633 81.169 216.682 133.324 265.563C182.884 312.012 276.812 297.135 297.685 259.117C302.555 250.246 306.425 234.696 299.296 225.278C281.596 201.896 217.255 244.247 188.647 217.758C171.694 202.061 174.303 168.677 175.757 150.08Z" fill="#8F1D1D"/>
  <path d="M206.738 133.243C205.753 133.696 204.985 134.515 204.595 135.526C204.205 136.537 204.225 137.66 204.651 138.657C204.741 138.858 204.847 139.051 204.969 139.235L196.269 150.85L200.61 157.338L210.81 140.138C211.531 139.575 212.046 138.789 212.275 137.903C212.503 137.016 212.432 136.08 212.072 135.238C211.648 134.274 210.859 133.518 209.878 133.136C208.896 132.755 207.804 132.778 206.84 133.202L206.738 133.243Z" fill="#FFB6B6"/>
  <path d="M206.731 153.27C207.3 153.77 205.721 154.398 204.051 153.415C203.573 153.13 203.369 153.015 203.315 153.087C203.68 154.609 203.828 156.175 203.755 157.739C203.626 159.576 200.575 163.03 197.111 166.398C192.427 170.953 186.981 175.347 186.981 175.347L185.069 173.816L165.021 157.739L161.637 153.055C161.947 151.205 162.412 149.385 163.028 147.614C163.877 145.162 164.885 142.769 166.047 140.449C166.67 139.187 167.309 137.984 167.922 136.877L178.665 148.715L187.665 158.63C187.665 158.63 190.286 154.408 192.317 153.259C192.575 153.092 192.87 152.989 193.176 152.959C195.228 152.859 195.351 151.745 192.976 149.312C190.601 146.879 193.599 149.151 195.715 148.496C197.831 147.841 195.715 148.496 196.161 146.858C196.607 145.22 202.542 141.933 202.542 141.933L202.789 142.153L207.274 146.112L208.558 147.245C208.558 147.245 207.158 151.091 206.769 151.902C206.38 152.713 206.167 152.76 206.731 153.27Z" fill="#D83B3B"/>
  <path d="M324.961 227.886L325.18 221.961L302.432 218.298L302.109 227.042L324.961 227.886Z" fill="#FFB6B6"/>
  <path d="M320.832 229.67L320.616 220.184L324.671 220.334L331.218 211.564C331.541 211.131 331.995 210.813 332.512 210.656C333.029 210.499 333.582 210.511 334.092 210.691C334.602 210.87 335.04 211.208 335.344 211.655C335.648 212.102 335.802 212.634 335.782 213.174L335.366 224.443L331.283 226.237L335.266 227.143L335.109 231.392L320.832 229.67Z" fill="#6A0505"/>
  <path d="M196.932 230.192L268.984 232.019C268.984 232.019 300.099 233.819 307.399 229.067L315.099 228.095L315.516 216.787C315.516 216.787 310.808 216.822 308.102 215.561C305.396 214.3 307.276 212.761 304.696 214.274C302.116 215.787 302.388 215.974 300.396 215.274C298.404 214.574 206.909 200.631 206.909 200.631L196.932 230.192Z" fill="#6A0505"/>
  <path d="M291.877 225.285L296.067 221.091L281.882 202.933L275.698 209.124L291.877 225.285Z" fill="#FFB6B6"/>
  <path d="M287.637 221.636L293.931 214.536L296.802 217.404L307.566 215.428C308.098 215.33 308.647 215.405 309.133 215.642C309.619 215.878 310.016 216.264 310.268 216.742C310.519 217.221 310.611 217.767 310.53 218.302C310.449 218.836 310.199 219.331 309.817 219.713L301.848 227.691L297.634 226.229L299.934 229.603L296.934 232.611L287.637 221.636Z" fill="#6A0505"/>
  <path d="M168.505 190.736L169.221 207.387C170.064 226.987 191.651 238.852 208.39 228.618C208.699 228.429 209.008 228.234 209.319 228.032C209.319 228.032 215.665 226.332 215.472 223.632C215.279 220.932 216.83 219.62 218.202 220.356C219.574 221.092 237.537 195.6 237.537 195.6C237.537 195.6 274.858 214.216 283.091 218.6C283.091 218.6 290.832 206.5 290.271 206.624C289.71 206.748 244.101 174.824 244.101 174.824C244.101 174.824 236.671 167.304 227.454 172.269C227.262 172.998 227.426 173.024 227.426 173.024L196.979 197.833L192.679 189.663L168.505 190.736Z" fill="#6A0505"/>
  <path d="M197.213 169.916C197.155 170.685 197.045 171.45 196.885 172.204C196.666 173.296 196.312 174.357 195.832 175.362C195.832 175.362 195.832 176.485 193.684 180.245C191.536 184.005 194.221 182.393 195.832 185.187C197.443 187.981 195.832 186.687 194.043 188.487C193.528 189.009 193.162 189.66 192.984 190.371C192.805 191.082 192.82 191.829 193.028 192.532C193.028 192.532 169.953 192.548 165.656 190.932C161.359 189.316 160.381 180.243 164.233 179.346C168.085 178.449 163.067 177.557 160.806 175.489C158.545 173.421 163.067 170.037 163.067 170.037C163.067 170.037 161.203 166.82 161.359 156.018C161.381 155.024 161.473 154.034 161.633 153.053C161.943 151.203 162.408 149.383 163.024 147.612C163.873 145.16 164.881 142.767 166.043 140.447C166.666 139.185 167.305 137.982 167.918 136.875C168.018 136.703 168.106 136.537 168.203 136.375C169.369 134.312 170.432 132.626 171.136 131.546C171.678 130.708 172.006 130.235 172.006 130.235L175.916 123.435L188.968 129.553L188.227 139.56L190.478 147.107L191.515 150.582L192.315 153.262L193.55 157.414C193.55 157.414 193.212 157.43 193.614 157.983C195.47 160.449 196.674 163.344 197.114 166.4C197.267 167.565 197.301 168.744 197.213 169.916Z" fill="#D83B3B"/>
  <path d="M234.906 170.994L234.661 170.915L203.421 160.855L214.93 123.089C215.159 122.337 215.556 121.647 216.091 121.07C216.626 120.494 217.284 120.046 218.017 119.761C218.75 119.477 219.538 119.362 220.322 119.426C221.105 119.49 221.864 119.731 222.541 120.131L242.505 131.926C244.085 132.859 245.288 134.317 245.902 136.046C246.516 137.775 246.503 139.665 245.865 141.386L234.906 170.994Z" fill="#6A0505"/>
  <path d="M235.032 173.395L203.541 163.255L215.053 125.489C215.282 124.737 215.679 124.047 216.214 123.47C216.748 122.894 217.407 122.446 218.14 122.161C218.873 121.877 219.661 121.762 220.445 121.826C221.228 121.89 221.987 122.131 222.664 122.531L243.581 132.974C246.723 134.83 246.65 139.634 245.191 143.574L235.032 173.395Z" fill="#D83B3B"/>
  <path d="M231.88 176.129C231.155 176.538 230.353 176.792 229.524 176.875C228.695 176.957 227.859 176.866 227.067 176.608L206.938 170.126C205.394 169.621 204.108 168.533 203.355 167.093C202.603 165.653 202.443 163.976 202.91 162.42L213.002 129.313C213.204 128.652 213.535 128.037 213.978 127.506C214.42 126.974 214.964 126.536 215.577 126.218C216.191 125.899 216.862 125.706 217.551 125.651C218.241 125.595 218.934 125.677 219.591 125.893L240.45 132.742C241.444 133.068 242.362 133.59 243.151 134.278C243.94 134.965 244.583 135.803 245.042 136.743C245.501 137.683 245.767 138.705 245.825 139.75C245.883 140.794 245.73 141.839 245.377 142.824L234.587 172.905C234.102 174.271 233.141 175.416 231.879 176.129H231.88Z" fill="#6A0505"/>
  <path d="M188.23 123.549C196.192 123.549 202.647 117.094 202.647 109.132C202.647 101.17 196.192 94.715 188.23 94.715C180.268 94.715 173.813 101.17 173.813 109.132C173.813 117.094 180.268 123.549 188.23 123.549Z" fill="#FFB6B6"/>
  <path d="M139.479 123.767C140.802 126.332 142.971 128.36 145.619 129.507C146.676 129.988 147.787 130.34 148.928 130.554C149.251 129.275 149.767 128.052 150.459 126.929C150.228 128.195 150.228 129.492 150.459 130.758C152.198 130.9 153.947 130.683 155.598 130.12C157.219 129.568 158.69 128.647 159.893 127.428C161.096 126.209 161.999 124.726 162.529 123.098C163.677 119.276 162.44 115.198 162.343 111.206C162.246 107.214 164.137 102.445 168.097 101.952C171.113 101.576 170.74 101.868 172.907 103.998C169.876 107.365 177.266 122.28 181.231 121.621C183.473 121.248 185.123 119.468 185.566 119.53C187.837 125.091 181.006 132.977 186.424 135.566L186.024 135.034C183.188 130.35 191.579 122.434 188.743 117.754C187.952 116.444 187.131 114.907 187.62 113.454C188.084 112.076 190.435 111.64 190.931 112.894C190.765 112.171 190.75 111.422 190.887 110.693C191.023 109.964 191.308 109.271 191.724 108.658C192.14 108.044 192.678 107.522 193.304 107.125C193.931 106.728 194.632 106.465 195.365 106.351C198.021 106.089 197.865 106.846 200.4 107.537C200.724 106.447 201.19 105.405 201.787 104.437C201.585 105.542 201.56 106.672 201.713 107.785C202.626 107.894 203.55 107.699 204.341 107.229C206.679 105.829 206.749 102.209 205.141 100.007C203.533 97.805 200.841 96.717 198.236 95.894C198.212 90.394 183.414 87.762 180.692 92.875C180.412 88.735 175.666 85.946 171.578 86.649C167.49 87.352 164.265 90.63 162.298 94.284C160.331 97.938 159.356 102.023 157.917 105.912C156.478 109.801 154.417 113.678 150.974 115.986C147.531 118.294 142.407 118.5 139.53 115.513C138.874 116.788 138.527 118.2 138.518 119.634C138.51 121.068 138.839 122.484 139.479 123.767Z" fill="#6A0505"/>
  <path d="M154.271 189.694C154.569 189.456 154.893 189.251 155.236 189.083C160.754 186.337 177.915 179.208 191.336 179.5C217.154 180.063 250.01 208.556 242.363 227.69C236.544 242.249 207.617 250.533 186.501 243.908C156.918 234.627 145.241 196.894 154.271 189.694Z" fill="#8F1D1D"/>
  <path d="M47.091 294.581C38.655 292.989 31.191 254.981 47.785 236.265C53.472 229.852 60.565 227.065 70.001 224.465C124.309 209.514 165.73 223.765 171.301 227.242C176.872 230.719 186.591 283.014 174.141 290.417C167.136 294.583 153.251 296.665 146.371 291.806C136.248 284.655 153.239 266.106 145.677 253.623C137.095 239.456 91.905 234.684 69.248 248.764C45.07 263.781 94.93 303.609 47.091 294.581Z" fill="#F2F2F2"/>
  <path d="M103.494 229.965H71.2649C63.3089 222.34 57.6199 214.992 62.1749 208.892C62.1749 207.139 62.8715 205.457 64.1113 204.217C65.3511 202.977 67.0326 202.281 68.7859 202.281H105.974C107.727 202.281 109.409 202.977 110.649 204.217C111.888 205.457 112.585 207.139 112.585 208.892C114.318 215.843 111.221 222.868 103.494 229.965Z" fill="#CCCCCC"/>
  <path d="M97.706 193.959C97.4001 193.973 97.0973 193.893 96.8386 193.729C96.5799 193.565 96.3778 193.326 96.2597 193.043C96.1416 192.761 96.1132 192.449 96.1784 192.15C96.2435 191.851 96.3991 191.579 96.624 191.371L96.724 190.964L96.683 190.864C96.3758 190.135 95.8596 189.513 95.1996 189.077C94.5396 188.64 93.7652 188.409 92.974 188.412C92.1828 188.415 91.4101 188.652 90.7533 189.093C90.0965 189.534 89.5849 190.16 89.283 190.891C88.073 193.804 86.533 196.722 86.154 199.803C85.9869 201.164 86.0573 202.545 86.362 203.882C83.521 197.685 82.0456 190.949 82.036 184.132C82.0356 182.421 82.1307 180.712 82.321 179.012C82.4783 177.618 82.6963 176.234 82.975 174.861C84.4974 167.406 87.7666 160.419 92.514 154.473C94.8117 153.219 96.6699 151.291 97.838 148.949C98.2613 148.107 98.5604 147.208 98.726 146.28C98.467 146.314 97.749 142.366 97.944 142.124C97.583 141.576 96.936 141.303 96.544 140.769C94.582 138.109 91.879 138.569 90.468 142.188C87.453 143.709 87.424 146.233 89.274 148.66C90.451 150.204 90.613 152.293 91.645 153.946C91.539 154.082 91.428 154.214 91.322 154.346C89.3801 156.843 87.6877 159.525 86.269 162.352C86.6145 159.185 86.2032 155.981 85.069 153.004C83.919 150.229 81.763 147.893 79.869 145.494C79.3669 144.85 78.6851 144.369 77.9097 144.112C77.1343 143.855 76.3001 143.833 75.5126 144.05C74.7251 144.267 74.0197 144.713 73.4854 145.331C72.9511 145.949 72.612 146.711 72.511 147.522C72.507 147.557 72.5033 147.593 72.5 147.628C72.782 147.787 73.058 147.956 73.328 148.134C73.6672 148.361 73.93 148.684 74.0821 149.063C74.2341 149.442 74.2683 149.857 74.1801 150.256C74.0919 150.654 73.8854 151.016 73.5878 151.295C73.2901 151.574 72.9152 151.757 72.512 151.819L72.471 151.825C72.5714 152.841 72.7489 153.849 73.002 154.838C70.567 164.256 75.824 167.686 83.332 167.838C83.498 167.923 83.659 168.008 83.825 168.089C82.3995 172.129 81.5054 176.337 81.165 180.607C80.9723 183.126 80.9837 185.657 81.199 188.175L81.186 188.086C80.642 185.287 79.1486 182.761 76.958 180.935C73.704 178.262 69.108 177.278 65.597 175.13C65.224 174.89 64.7902 174.762 64.3469 174.761C63.9035 174.76 63.4691 174.886 63.0948 175.123C62.7206 175.361 62.4221 175.701 62.2347 176.103C62.0473 176.504 61.9787 176.951 62.037 177.391L62.051 177.485C62.5741 177.698 63.0834 177.944 63.576 178.22C63.858 178.379 64.134 178.548 64.404 178.727C64.7432 178.954 65.006 179.278 65.158 179.656C65.31 180.035 65.3441 180.451 65.2558 180.849C65.1675 181.247 64.9609 181.61 64.6631 181.888C64.3653 182.167 63.9903 182.35 63.587 182.412L63.546 182.418L63.461 182.431C64.3552 184.566 65.6102 186.531 67.171 188.24C68.694 196.462 75.234 197.24 82.23 194.848C82.9977 198.184 84.11 201.43 85.549 204.536H97.404C97.447 204.404 97.485 204.268 97.523 204.136C96.4256 204.203 95.3241 204.136 94.243 203.936C95.123 202.857 96.002 201.769 96.882 200.69C96.9015 200.67 96.9199 200.648 96.937 200.626C97.383 200.074 97.837 199.526 98.28 198.973C98.3038 197.28 98.1096 195.591 97.702 193.947L97.706 193.959Z" fill="#CCCCCC"/>
  <path d="M138.143 228.238C138.34 228.811 138.713 229.306 139.209 229.653C139.704 230.001 140.298 230.182 140.903 230.171L152.726 229.871C153.336 229.859 153.925 229.65 154.406 229.276C154.887 228.901 155.234 228.381 155.395 227.793L157.068 209.902C157.661 210.171 158.308 210.304 158.959 210.291C160.096 210.253 161.172 209.768 161.952 208.94C162.733 208.113 163.154 207.01 163.126 205.873C163.098 204.736 162.621 203.657 161.8 202.869C160.979 202.082 159.88 201.651 158.743 201.67C158.482 201.669 158.223 201.696 157.968 201.751C157.691 201.451 157.355 201.213 156.98 201.051C156.605 200.889 156.201 200.808 155.793 200.812L137.606 201.282C137.455 201.288 137.305 201.306 137.157 201.338C136.758 201.412 136.38 201.571 136.048 201.804C135.715 202.037 135.437 202.338 135.231 202.688C135.025 203.037 134.896 203.427 134.853 203.831C134.81 204.234 134.854 204.642 134.982 205.027L138.143 228.238ZM157.413 208.682L158.604 204.419C158.74 203.927 158.743 203.407 158.613 202.913C158.671 202.913 158.722 202.885 158.78 202.885C159.598 202.866 160.39 203.172 160.981 203.737C161.573 204.302 161.916 205.079 161.935 205.897C161.955 206.714 161.648 207.506 161.083 208.098C160.518 208.69 159.742 209.033 158.924 209.052C158.396 209.069 157.874 208.941 157.413 208.682Z" fill="#CCCCCC"/>
  <path d="M137.157 201.333C137.544 203.548 141.901 205.106 147.139 204.833C151.956 204.611 155.894 202.92 156.616 200.915C156.349 200.836 156.071 200.799 155.793 200.805L137.606 201.275C137.455 201.281 137.305 201.299 137.157 201.331V201.333Z" fill="white"/>
  <path d="M0.771973 295.427L398.955 295.59C399.123 295.59 399.284 295.523 399.403 295.405C399.521 295.286 399.588 295.125 399.588 294.957C399.588 294.789 399.521 294.628 399.403 294.509C399.284 294.391 399.123 294.324 398.955 294.324L0.771973 294.161C0.604091 294.161 0.443097 294.228 0.324387 294.346C0.205676 294.465 0.138977 294.626 0.138977 294.794C0.138977 294.962 0.205676 295.123 0.324387 295.242C0.443097 295.36 0.604091 295.427 0.771973 295.427Z" fill="#CACACA"/>
  <path d="M224.1 153.907C223.016 153.947 221.991 154.408 221.242 155.192C220.494 155.977 220.081 157.023 220.092 158.107C220.098 158.327 220.121 158.547 220.163 158.763L207.663 166.141L209.176 173.799L225.202 161.842C226.086 161.6 226.864 161.072 227.416 160.341C227.968 159.609 228.262 158.716 228.253 157.8C228.232 156.747 227.794 155.746 227.035 155.016C226.276 154.287 225.259 153.888 224.206 153.909L224.1 153.907Z" fill="#FFB6B6"/>
  <path d="M213.863 171.497C213.529 171.049 213.385 170.862 213.309 170.913C213.06 172.456 212.596 173.956 211.93 175.369C209.992 179.243 189.678 185.177 189.678 185.177L187.178 180.598L176.178 160.475L172.386 144.346C172.253 143.784 172.189 143.208 172.194 142.63C175.575 140.251 179.165 138.184 182.921 136.455C184.422 137.306 185.566 138.669 186.144 140.295L193.717 161.529L196.739 170.007C196.739 170.007 202.07 166.195 204.003 166.895C205.936 167.595 206.482 166.612 205.22 163.452C203.958 160.292 205.852 163.545 208.056 163.752C210.26 163.959 208.056 163.752 209.099 162.411C210.142 161.07 216.887 160.311 216.887 160.311L217.03 160.611L219.644 165.988L220.392 167.533C220.392 167.533 217.621 170.54 216.952 171.139C216.283 171.738 216.073 171.701 216.402 172.388C216.731 173.075 215.024 173.045 213.863 171.497Z" fill="#D83B3B"/>
</svg>

